<?xml version="1.0" encoding="UTF-8"?><svg id="a" xmlns="http://www.w3.org/2000/svg" viewBox="0 0 47.75385 64"><defs><style>.d{fill:none;stroke:#e20613;stroke-linecap:round;stroke-miterlimit:10;stroke-width:3px;}.e{fill:#e20613;}</style></defs><g id="b"><path id="c" class="e" d="M47.48804,18.19994L34.21538,.98462C33.96923,.49231,33.23077,0,32.73846,0H5.90769C4.67692,0,3.44615,.49231,2.21538,1.23077,.98462,2.46154,0,4.43077,0,6.4V57.35385c0,3.44615,2.46154,6.64615,5.41538,6.64615H42.33846c3.2,0,5.41539-2.95385,5.41539-6.64615V19.69231c0-.78506,0-1.16425-.26581-1.49237Zm-13.0265-10.81532l7.87692,10.33846h-7.87692V7.38462Zm9.84615,49.96923c0,1.72308-.98462,2.95385-1.96923,2.95385H5.41538c-.73846,0-1.96923-1.23077-1.96923-2.95385V6.4c0-.98462,.24615-1.72308,.98462-2.21538q.24615-.24615,.73846-.24615H30.52308v15.75385c0,.98462,.73846,1.96923,1.96923,1.96923h11.81538V57.35385Z"/></g><g><line class="d" x1="23.87692" y1="26.97648" x2="23.87692" y2="53.0024"/><line class="d" x1="28.73887" y1="31.20952" x2="28.73887" y2="48.76936"/><line class="d" x1="33.60081" y1="35.50975" x2="33.60081" y2="44.46913"/><line class="d" x1="38.46276" y1="38.65691" x2="38.46276" y2="41.32197"/><line class="d" x1="19.01498" y1="31.20952" x2="19.01498" y2="48.76936"/><line class="d" x1="14.15303" y1="35.50975" x2="14.15303" y2="44.46913"/><line class="d" x1="9.29109" y1="38.65691" x2="9.29109" y2="41.32197"/></g></svg>