<?xml version="1.0" encoding="UTF-8"?><svg id="a" xmlns="http://www.w3.org/2000/svg" viewBox="0 0 47.75385 64"><defs><style>.d{fill:#e20613;}</style></defs><g id="b"><path id="c" class="d" d="M47.48804,18.19994L34.21538,.98462C33.96923,.49231,33.23077,0,32.73846,0H5.90769C4.67692,0,3.44615,.49231,2.21538,1.23077,.98462,2.46154,0,4.43077,0,6.4V57.35385c0,3.44615,2.46154,6.64615,5.41538,6.64615H42.33846c3.2,0,5.41539-2.95385,5.41539-6.64615V19.69231c0-.78506,0-1.16425-.26581-1.49237Zm-13.0265-10.81532l7.87692,10.33846h-7.87692V7.38462Zm9.84615,49.96923c0,1.72308-.98462,2.95385-1.96923,2.95385H5.41538c-.73846,0-1.96923-1.23077-1.96923-2.95385V6.4c0-.98462,.24615-1.72308,.98462-2.21538q.24615-.24615,.73846-.24615H30.52308v15.75385c0,.98462,.73846,1.96923,1.96923,1.96923h11.81538V57.35385Z"/></g><g><path class="d" d="M9.86953,43.58221v2.11328h-1.9209v-2.11328h1.9209Z"/><path class="d" d="M12.32266,34.13885h4.0332c3.16992,0,3.76172,2.11279,3.76172,5.71387,0,1.77734,.27246,5.84277-3.85742,5.84277h-3.9375v-11.55664Zm2.41699,9.78027h1.16895c1.47168,0,1.75977-1.10449,1.75977-4.00195,0-2.12891,0-4.00146-1.68066-4.00146h-1.24805v8.00342Z"/><path class="d" d="M22.39297,39.91718c0-3.05762,0-5.97021,3.98535-5.97021s3.98535,2.9126,3.98535,5.97021c0,3.02539,0,5.9707-3.98535,5.9707s-3.98535-2.94531-3.98535-5.9707Zm5.52148,0c0-2.96094-.17578-4.2417-1.53613-4.2417s-1.53711,1.28076-1.53711,4.2417,.17676,4.24121,1.53711,4.24121,1.53613-1.28027,1.53613-4.24121Z"/><path class="d" d="M32.62246,39.91718c0-3.05762,0-5.97021,3.98535-5.97021,2.46484,0,3.45801,1.36035,3.36133,3.84131h-2.36914c0-1.53662-.27148-2.11279-.99219-2.11279-1.36035,0-1.53613,1.28076-1.53613,4.2417s.17578,4.24121,1.53613,4.24121c1.12012,0,1.07227-1.44043,1.10449-2.35254h2.38477c0,3.08887-1.23242,4.08203-3.48926,4.08203-3.98535,0-3.98535-2.94531-3.98535-5.9707Z"/></g></svg>