<?xml version="1.0" encoding="UTF-8"?><svg id="a" xmlns="http://www.w3.org/2000/svg" viewBox="0 0 47.75385 64"><defs><style>.d{stroke-miterlimit:10;}.d,.e{fill:none;stroke:#e20613;stroke-width:3px;}.e{stroke-linecap:round;stroke-linejoin:round;}.f{fill:#e20613;}</style></defs><g id="b"><path id="c" class="f" d="M47.48804,18.19994L34.21538,.98462C33.96923,.49231,33.23077,0,32.73846,0H5.90769C4.67692,0,3.44615,.49231,2.21538,1.23077,.98462,2.46154,0,4.43077,0,6.4V57.35385C0,60.8,2.46154,64,5.41538,64H42.33846c3.2,0,5.41539-2.95385,5.41539-6.64615V19.69231c0-.78506,0-1.16425-.26581-1.49237Zm-13.0265-10.81532l7.87692,10.33846h-7.87692V7.38462Zm9.84615,49.96923c0,1.72308-.98462,2.95385-1.96923,2.95385H5.41538c-.73846,0-1.96923-1.23077-1.96923-2.95385V6.4c0-.98462,.24615-1.72308,.98462-2.21538q.24615-.24615,.73846-.24615H30.52308v15.75385c0,.98462,.73846,1.96923,1.96923,1.96923h11.81538V57.35385Z"/></g><g><circle class="f" cx="18.2955" cy="36.53957" r="2.5008"/><rect class="d" x="11.61834" y="28.91341" width="24.51717" height="24.51717" rx="3.86396" ry="3.86396" transform="translate(-6.10688 4.20968) rotate(-8.93816)"/><polyline class="e" points="12.80134 48.04898 17.57642 43.20807 22.77382 45.90779 27.71785 37.58918 36.60719 44.38156"/></g></svg>