<?xml version="1.0" encoding="UTF-8"?><svg id="a" xmlns="http://www.w3.org/2000/svg" viewBox="0 0 47.75385 64"><defs><style>.d{fill:#e20613;}</style></defs><g id="b"><path id="c" class="d" d="M47.48804,18.19994L34.21538,.98462C33.96923,.49231,33.23077,0,32.73846,0H5.90769C4.67692,0,3.44615,.49231,2.21538,1.23077,.98462,2.46154,0,4.43077,0,6.4V57.35385C0,60.8,2.46154,64,5.41538,64H42.33846c3.2,0,5.41539-2.95385,5.41539-6.64615V19.69231c0-.78506,0-1.16425-.26581-1.49237Zm-13.0265-10.81532l7.87692,10.33846h-7.87692V7.38462Zm9.84615,49.96923c0,1.72308-.98462,2.95385-1.96923,2.95385H5.41538c-.73846,0-1.96923-1.23077-1.96923-2.95385V6.4c0-.98462,.24615-1.72308,.98462-2.21538q.24615-.24615,.73846-.24615H30.52308v15.75385c0,.98462,.73846,1.96923,1.96923,1.96923h11.81538V57.35385Z"/></g><g><path class="d" d="M10.45133,43.58221v2.11328h-1.9209v-2.11328h1.9209Z"/><path class="d" d="M19.22672,34.13885v8.86719c0,2.01758-1.63281,2.88184-3.34473,2.88184-3.37793,0-3.52148-1.40918-3.52148-4.03418h2.46484c0,.92871-.20801,2.30469,1.05664,2.30469,.54395,0,.92773-.49609,.92773-.99219v-9.02734h2.41699Z"/><path class="d" d="M21.71695,34.13885h4.35352c2.20898,0,3.07324,1.34473,3.07324,3.45703,0,1.3125-.38381,3.39355-3.2168,3.39355h-1.79297v4.70605h-2.41699v-11.55664Zm2.41699,5.07422h1.34473c.7207,0,1.2168-.78418,1.2168-1.55273,0-.94434-.25684-1.74463-1.34473-1.74463h-1.2168v3.29736Z"/><path class="d" d="M36.55289,37.69257c.01562-1.07227-.16016-2.01709-1.44141-2.01709-1.50391,0-1.50391,2.03271-1.50391,4.27393,0,3.61719,.35156,4.25781,1.72852,4.25781,.40039,0,.83203-.09668,1.2002-.22461v-2.56055h-1.3125v-1.77734h3.72949v5.8584c-.65625,.12793-2.30469,.38477-3.26562,.38477-4.06543,0-4.5293-1.68066-4.5293-6.06641,0-2.91309,.14355-5.87451,4.09766-5.87451,2.36914,0,3.8418,1.32812,3.69727,3.74561h-2.40039Z"/></g></svg>