<?xml version="1.0" encoding="UTF-8"?><svg id="a" xmlns="http://www.w3.org/2000/svg" viewBox="0 0 47.75385 64"><defs><style>.d{fill:#e20613;}</style></defs><g id="b"><path id="c" class="d" d="M47.48804,18.19994L34.21538,.98462C33.96923,.49231,33.23077,0,32.73846,0H5.90769C4.67692,0,3.44615,.49231,2.21538,1.23077,.98462,2.46154,0,4.43077,0,6.4V57.35385c0,3.44615,2.46154,6.64615,5.41538,6.64615H42.33846c3.2,0,5.41539-2.95385,5.41539-6.64615V19.69231c0-.78506,0-1.16425-.26581-1.49237Zm-13.0265-10.81532l7.87692,10.33846h-7.87692V7.38462Zm9.84615,49.96923c0,1.72308-.98462,2.95385-1.96923,2.95385H5.41538c-.73846,0-1.96923-1.23077-1.96923-2.95385V6.4c0-.98462,.24615-1.72308,.98462-2.21538q.24615-.24615,.73846-.24615H30.52308v15.75385c0,.98462,.73846,1.96923,1.96923,1.96923h11.81538V57.35385Z"/></g><g><path class="d" d="M9.08633,43.58221v2.11328h-1.9209v-2.11328h1.9209Z"/><path class="d" d="M11.4916,45.6955v-11.55664h3.88965l1.80859,7.85938h.03223l1.9209-7.85938h3.76172v11.55664h-2.35352v-8.91602h-.03223l-2.22461,8.91602h-2.30469l-2.11328-8.91602h-.03125v8.91602h-2.35352Z"/><path class="d" d="M25.44863,34.13885h4.35352c2.20898,0,3.07324,1.34473,3.07324,3.45703,0,1.3125-.38379,3.39355-3.2168,3.39355h-1.79297v4.70605h-2.41699v-11.55664Zm2.41699,5.07422h1.34473c.7207,0,1.2168-.78418,1.2168-1.55273,0-.94434-.25684-1.74463-1.34473-1.74463h-1.2168v3.29736Z"/><path class="d" d="M34.61953,37.3078c0-1.15234,.25586-1.88867,.76855-2.33643,.51172-.43262,1.3125-.59229,2.43262-.59229,2.08105,0,3.05762,.84814,3.05762,2.97656,0,1.05664-.30469,2.30566-1.52148,2.48145v.03223c1.45703,.27148,1.69727,1.4248,1.69727,2.7207,0,2.30469-1.23242,3.25-3.48926,3.25-2.20898,0-3.07324-.78516-3.07324-3.16992h2.25684c0,.73633-.03223,1.53711,.94434,1.53711,1.02441,0,1.10449-.94434,1.10449-1.72949,0-1.61621-.52832-1.71191-2.09668-1.71191v-1.77734c1.47266,.06445,1.91992-.0957,1.91992-1.64844,0-.6084-.0957-1.32861-.86426-1.32861-.81641,0-.87988,.65674-.87988,1.29639h-2.25684Z"/></g></svg>