<?xml version="1.0" encoding="UTF-8"?><svg id="a" xmlns="http://www.w3.org/2000/svg" viewBox="0 0 47.75385 64"><defs><style>.d{fill:#e20613;}</style></defs><g id="b"><path id="c" class="d" d="M47.48804,18.19994L34.21538,.98462C33.96923,.49231,33.23077,0,32.73846,0H5.90769C4.67692,0,3.44615,.49231,2.21538,1.23077,.98462,2.46154,0,4.43077,0,6.4V57.35385c0,3.44615,2.46154,6.64615,5.41538,6.64615H42.33846c3.2,0,5.41539-2.95385,5.41539-6.64615V19.69231c0-.78506,0-1.16425-.26581-1.49237Zm-13.0265-10.81532l7.87692,10.33846h-7.87692V7.38462Zm9.84615,49.96923c0,1.72308-.98462,2.95385-1.96923,2.95385H5.41538c-.73846,0-1.96923-1.23077-1.96923-2.95385V6.4c0-.98462,.24615-1.72308,.98462-2.21538q.24615-.24615,.73846-.24615H30.52308v15.75385c0,.98462,.73846,1.96923,1.96923,1.96923h11.81538V57.35385Z"/></g><g><path class="d" d="M11.12051,43.58221v2.11328h-1.9209v-2.11328h1.9209Z"/><path class="d" d="M13.55801,34.13885h4.35352c2.20898,0,3.07324,1.34473,3.07324,3.45703,0,1.3125-.38379,3.39355-3.2168,3.39355h-1.79297v4.70605h-2.41699v-11.55664Zm2.41699,5.07422h1.34473c.7207,0,1.2168-.78418,1.2168-1.55273,0-.94434-.25684-1.74463-1.34473-1.74463h-1.2168v3.29736Z"/><path class="d" d="M23.09609,34.13885h4.0332c3.16895,0,3.76172,2.11279,3.76172,5.71387,0,1.77734,.27148,5.84277-3.85742,5.84277h-3.9375v-11.55664Zm2.41699,9.78027h1.16797c1.47266,0,1.76074-1.10449,1.76074-4.00195,0-2.12891,0-4.00146-1.68066-4.00146h-1.24805v8.00342Z"/><path class="d" d="M33.22402,45.6955v-11.55664h6.00293v1.77686h-3.58594v2.96143h3.42578v1.77637h-3.42578v5.04199h-2.41699Z"/></g></svg>