<?xml version="1.0" encoding="UTF-8"?><svg id="a" xmlns="http://www.w3.org/2000/svg" viewBox="0 0 47.75385 64"><defs><style>.d{fill:#e20613;}</style></defs><g id="b"><path id="c" class="d" d="M47.48804,18.19994L34.21538,.98462C33.96923,.49231,33.23077,0,32.73846,0H5.90769C4.67692,0,3.44615,.49231,2.21538,1.23077,.98462,2.46154,0,4.43077,0,6.4V57.35385c0,3.44615,2.46154,6.64615,5.41538,6.64615H42.33846c3.2,0,5.41539-2.95385,5.41539-6.64615V19.69231c0-.78506,0-1.16425-.26581-1.49237Zm-13.0265-10.81532l7.87692,10.33846h-7.87692V7.38462Zm9.84615,49.96923c0,1.72308-.98462,2.95385-1.96923,2.95385H5.41538c-.73846,0-1.96923-1.23077-1.96923-2.95385V6.4c0-.98462,.24615-1.72308,.98462-2.21538q.24615-.24615,.73846-.24615H30.52308v15.75385c0,.98462,.73846,1.96923,1.96923,1.96923h11.81538V57.35385Z"/></g><g><path class="d" d="M9.30777,43.58221v2.11328h-1.9209v-2.11328h1.9209Z"/><path class="d" d="M11.74527,34.13885h4.35352c2.20898,0,3.07324,1.34473,3.07324,3.45703,0,1.3125-.38379,3.39355-3.2168,3.39355h-1.79297v4.70605h-2.41699v-11.55664Zm2.41699,5.07422h1.34473c.7207,0,1.2168-.78418,1.2168-1.55273,0-.94434-.25684-1.74463-1.34473-1.74463h-1.2168v3.29736Z"/><path class="d" d="M21.26676,45.6955v-11.55664h3.26562l3.07324,8.00293h.03223v-8.00293h2.25684v11.55664h-3.18555l-3.15332-8.45117h-.03223v8.45117h-2.25684Z"/><path class="d" d="M37.69645,37.69257c.01562-1.07227-.16016-2.01709-1.44141-2.01709-1.50391,0-1.50391,2.03271-1.50391,4.27393,0,3.61719,.35156,4.25781,1.72852,4.25781,.40039,0,.83203-.09668,1.2002-.22461v-2.56055h-1.3125v-1.77734h3.72949v5.8584c-.65625,.12793-2.30469,.38477-3.26562,.38477-4.06543,0-4.5293-1.68066-4.5293-6.06641,0-2.91309,.14355-5.87451,4.09766-5.87451,2.36914,0,3.8418,1.32812,3.69727,3.74561h-2.40039Z"/></g></svg>