<?xml version="1.0" encoding="UTF-8"?><svg id="a" xmlns="http://www.w3.org/2000/svg" viewBox="0 0 47.75385 64"><defs><style>.d{fill:#e20613;}</style></defs><g id="b"><path id="c" class="d" d="M47.48804,18.19994L34.21538,.98462C33.96923,.49231,33.23077,0,32.73846,0H5.90769C4.67692,0,3.44615,.49231,2.21538,1.23077,.98462,2.46154,0,4.43077,0,6.4V57.35385c0,3.44615,2.46154,6.64615,5.41538,6.64615H42.33846c3.2,0,5.41539-2.95385,5.41539-6.64615V19.69231c0-.78506,0-1.16425-.26581-1.49237Zm-13.0265-10.81532l7.87692,10.33846h-7.87692V7.38462Zm9.84615,49.96923c0,1.72308-.98462,2.95385-1.96923,2.95385H5.41538c-.73846,0-1.96923-1.23077-1.96923-2.95385V6.4c0-.98462,.24615-1.72308,.98462-2.21538q.24615-.24615,.73846-.24615H30.52308v15.75385c0,.98462,.73846,1.96923,1.96923,1.96923h11.81538V57.35385Z"/></g><g><path class="d" d="M11.04629,43.58221v2.11328h-1.9209v-2.11328h1.9209Z"/><path class="d" d="M13.03164,34.13885h2.75391l1.64844,3.79395,1.61621-3.79395h2.5127l-2.88086,5.71387,2.92969,5.84277h-2.7373l-1.77637-3.98535-1.77734,3.98535h-2.49707l2.99316-6.05078-2.78516-5.50586Z"/><path class="d" d="M23.51406,45.6955v-11.55664h2.41699v9.63574h3.61816v1.9209h-6.03516Z"/><path class="d" d="M34.69473,45.88788c-2.99316,0-3.55371-1.76074-3.42578-3.76172h2.41699c0,1.10449,.04785,2.03223,1.37695,2.03223,.81641,0,1.21582-.52734,1.21582-1.3125,0-2.08008-4.86523-2.20801-4.86523-5.64941,0-1.80908,.86426-3.24951,3.80957-3.24951,2.35254,0,3.52148,1.05615,3.36133,3.47314h-2.35352c0-.86426-.14355-1.74463-1.12012-1.74463-.78418,0-1.24902,.43213-1.24902,1.23291,0,2.19238,4.86621,2,4.86621,5.63379,0,2.99316-2.19238,3.3457-4.0332,3.3457Z"/></g></svg>