<?xml version="1.0" encoding="UTF-8"?><svg id="a" xmlns="http://www.w3.org/2000/svg" viewBox="0 0 47.75385 64"><defs><style>.d{fill:#e20613;}</style></defs><g id="b"><path id="c" class="d" d="M47.48804,18.19994L34.21538,.98462C33.96923,.49231,33.23077,0,32.73846,0H5.90769C4.67692,0,3.44615,.49231,2.21538,1.23077,.98462,2.46154,0,4.43077,0,6.4V57.35385c0,3.44615,2.46154,6.64615,5.41538,6.64615H42.33846c3.2,0,5.41539-2.95385,5.41539-6.64615V19.69231c0-.78506,0-1.16425-.26581-1.49237Zm-13.0265-10.81532l7.87692,10.33846h-7.87692V7.38462Zm9.84615,49.96923c0,1.72308-.98462,2.95385-1.96923,2.95385H5.41538c-.73846,0-1.96923-1.23077-1.96923-2.95385V6.4c0-.98462,.24615-1.72308,.98462-2.21538q.24615-.24615,.73846-.24615H30.52308v15.75385c0,.98462,.73846,1.96923,1.96923,1.96923h11.81538V57.35385Z"/></g><g><path class="d" d="M13.10879,43.58221v2.11328h-1.9209v-2.11328h1.9209Z"/><path class="d" d="M15.43399,34.13885h6.96289v2.09668l-4.86621,7.68359h4.97852v1.77637h-7.29883v-2.11328l4.84961-7.6665h-4.62598v-1.77686Z"/><path class="d" d="M24.54629,45.6955v-11.55664h2.41699v11.55664h-2.41699Z"/><path class="d" d="M29.50918,34.13885h4.35449c2.20898,0,3.07324,1.34473,3.07324,3.45703,0,1.3125-.38477,3.39355-3.21777,3.39355h-1.79297v4.70605h-2.41699v-11.55664Zm2.41699,5.07422h1.34473c.7207,0,1.2168-.78418,1.2168-1.55273,0-.94434-.25586-1.74463-1.34473-1.74463h-1.2168v3.29736Z"/></g></svg>