<?xml version="1.0" encoding="UTF-8"?>
<svg width="61px" height="58px" viewBox="0 0 61 58" version="1.1" xmlns="http://www.w3.org/2000/svg" xmlns:xlink="http://www.w3.org/1999/xlink">
    <title>actionbar-contact</title>
    <g id="Icons" stroke="none" stroke-width="1" fill="none" fill-rule="evenodd">
        <g id="actionbar-contact" transform="translate(-1.000000, -3.000000)" fill="#000000" fill-rule="nonzero">
            <path d="M19.3269566,6.55077646 L20.0467429,7.783468 L21.3189605,9.99977488 L56,10 C59.2383969,10 61.8775718,12.5655749 61.9958615,15.7750617 L62,16 L62,40 C62,43.2383969 59.4344251,45.8775718 56.2249383,45.9958615 L56,46 L46.957,46 L45.6523774,43.7344888 L44.646,42 L56,42 C57.0543618,42 57.9181651,41.1841222 57.9945143,40.1492623 L58,40 L57.9999605,16.7237749 L39.358084,33.9681989 C38.6302652,34.6414313 37.5278356,34.6750055 36.7627388,34.0714875 L36.6313683,33.9583715 L22.9112539,21.0826417 C22.5571148,21.4312443 22.1476022,21.7525057 21.684197,22.0408727 L21.3967799,22.212279 L19.1314258,23.5317895 L18.0009605,24.1807749 L17.9997454,26.4995705 C18.2417803,27.2789419 18.5426595,28.0811723 18.9037581,28.9214857 L19.1090137,29.3888651 C20.9453249,33.4771433 23.0898173,36.8729892 25.7218422,39.7120778 L25.8923769,39.8883638 L26.0822762,40.0726376 L26.3082109,40.2809756 L27.0691531,40.9528274 L28.309893,40.2282563 L31.0805111,38.636956 C34.0118462,36.9572163 37.1759146,37.7477725 38.9533459,40.5701104 L39.0779252,40.7751555 L37.3939605,41.7607749 L39.0818645,40.781908 L41.6523774,45.2134495 L43.4316781,48.3011764 C45.1438,51.28775 44.3392062,54.4518707 41.4498943,56.2642173 L41.1205638,56.4608315 L39.9473429,57.1256765 L38.7120827,57.8198055 L38.0847813,58.1831486 L37.7199073,58.401793 L37.217814,58.7157207 L37.055553,58.820887 C34.6149969,60.4217726 31.9490889,60.6404898 29.0635608,59.6911611 C25.899109,58.6548738 23.082648,56.8867536 20.0297355,54.2425054 C14.3231865,49.29495 9.8527584,43.3430835 6.61386019,36.4172776 C4.07672792,31.0005889 2.52428501,25.7098461 2.02007304,20.3453213 C1.6937188,17.0095589 1.86849777,14.3254779 2.77877429,11.7350598 C3.46565409,9.7939057 4.66904111,8.28084908 6.38992841,7.26222386 L6.6815348,7.09704243 L7.49756667,6.6445968 L8.42950028,6.11119355 L10.3938153,4.96706201 L11.3366102,4.42644393 C14.3286328,2.72489353 17.5648842,3.58715793 19.3269566,6.55077646 Z M13.3105703,7.9054475 L11.6813104,8.84604372 L10.0812306,9.77617474 L9.30634421,10.2165657 L8.8272371,10.4826603 C8.7482468,10.5260832 8.66935934,10.5692244 8.59008331,10.6123561 C7.60117709,11.1481205 6.95171686,11.9331527 6.55110772,13.0652783 C5.86551314,15.016319 5.72656736,17.1501096 6.00179299,19.9634205 C6.46093879,24.8483261 7.88448581,29.6997903 10.2367058,34.7216985 C13.2401195,41.1439621 17.3701117,46.642577 22.6492866,51.219601 C25.3328199,53.5439149 27.7187083,55.04173 30.3110249,55.8906577 C32.103055,56.4802281 33.506582,56.3650796 34.8641501,55.4745839 L35.2375033,55.2345565 L35.6184463,54.9980534 L36.0223175,54.7555678 L36.4644555,54.4975933 L39.1108837,53.0023391 L39.2262182,52.9352225 C40.3939682,52.2513792 40.6167508,51.4336142 39.9618766,50.2912711 L39.2220817,49.0042275 L35.6229042,42.7907867 L35.5337198,42.6466602 C34.9362254,41.7288986 34.1909061,41.5290346 33.2225016,42.0244126 L32.9939507,42.1505965 L31.2577948,43.1452222 L29.15239,44.3676516 L28.4318731,44.7935098 C27.3067002,45.4666517 26.0791739,45.4228175 25.1036668,44.5730155 L24.6507928,44.1545243 L23.744323,43.3549031 L23.4350473,43.0739278 L23.1671229,42.8191493 L22.9189511,42.5690731 C22.8780352,42.5265915 22.8370425,42.4834101 22.7955228,42.4390813 C19.8386679,39.2496521 17.4645222,35.4901457 15.4596509,31.0265921 C14.3984874,28.6599127 13.7166926,26.4979629 13.4156662,24.2975258 C13.2439315,23.0535197 13.7308314,22.0104195 14.8747065,21.3503476 L16.0069521,20.7141041 L18.2470963,19.4189793 L19.464126,18.7088759 C20.6076026,18.0441249 20.8460973,17.3066798 20.2549437,16.1801914 L19.8844047,15.5262298 L16.2801226,9.26160509 L15.8864316,8.59106241 C15.2387211,7.50168596 14.4091964,7.28066803 13.3105703,7.9054475 Z M23.6415614,14.0385241 C24.2407517,15.0837487 24.5429656,16.1392298 24.5632694,17.1484613 L38.009,29.766 L55.0539605,13.9997749 L23.6189605,13.9997749 L23.6415614,14.0385241 Z"></path>
        </g>
    </g>
</svg>