<?xml version="1.0" encoding="UTF-8"?>
<svg width="56px" height="59px" viewBox="0 0 56 59" version="1.1" xmlns="http://www.w3.org/2000/svg" xmlns:xlink="http://www.w3.org/1999/xlink">
    <title>actionbar-faq</title>
    <g id="Icons" stroke="none" stroke-width="1" fill="none" fill-rule="evenodd">
        <g id="actionbar-faq" transform="translate(-4.000000, -4.000000)" fill="#000000" fill-rule="nonzero">
            <path d="M54,4 C57.3137085,4 60,6.6862915 60,10 L60,10 L60,47 C60,50.3137085 57.3137085,53 54,53 L54,53 L29.631,53 L16.6509868,62.1356128 C15.3672961,63.0389507 13.6136289,62.1777103 13.5052783,60.6498969 L13.5052783,60.6498969 L13.5,60.5 L13.5,53 L10,53 C6.76160306,53 4.12242824,50.4344251 4.00413847,47.2249383 L4.00413847,47.2249383 L4,47 L4,10 C4,6.6862915 6.6862915,4 10,4 L10,4 Z M54,8 L10,8 C8.8954305,8 8,8.8954305 8,10 L8,10 L8,47 C8,48.1045695 8.8954305,49 10,49 L10,49 L15.5,49 C16.6045695,49 17.5,49.8954305 17.5,51 L17.5,51 L17.5,56.647 L27.8490132,49.3643872 C28.1378422,49.1611371 28.4744371,49.0386027 28.8241883,49.0077408 L28.8241883,49.0077408 L29,49 L54,49 C55.1045695,49 56,48.1045695 56,47 L56,47 L56,10 C56,8.8954305 55.1045695,8 54,8 L54,8 Z M32,39.8 C33.3254834,39.8 34.4,40.8745166 34.4,42.2 C34.4,43.5254834 33.3254834,44.6 32,44.6 C30.6745166,44.6 29.6,43.5254834 29.6,42.2 C29.6,40.8745166 30.6745166,39.8 32,39.8 Z M32,13 C37.5228475,13 42,17.4771525 42,23 C42,27.8375693 38.5649727,31.8728451 34.0009807,32.7997646 L34,35.8 C34,36.9045695 33.1045695,37.8 32,37.8 C30.9456382,37.8 30.0818349,36.9841222 30.0054857,35.9492623 L30,35.8 L30,31 C30,30.8995846 30.0074003,30.8008976 30.0216851,30.7044547 L30.0238794,30.6900051 L30.0336551,30.6326942 L30.0336551,30.6326942 C30.05753,30.5039425 30.0938729,30.3791879 30.1413353,30.2600693 C30.146133,30.2480263 30.1510877,30.235938 30.1561567,30.2239097 C30.1895933,30.1445559 30.228053,30.0677259 30.2711057,29.9939029 C30.2775388,29.9828642 30.2843849,29.9713837 30.291342,29.9599783 C30.3069419,29.9344026 30.323125,29.9091673 30.3398508,29.8843278 C30.3512025,29.8674759 30.3625938,29.851099 30.3742211,29.8349029 C30.3905032,29.8122226 30.4072616,29.7898798 30.4244697,29.7679061 C30.4363853,29.7526847 30.4487527,29.7373563 30.4613394,29.7222166 C30.4798249,29.6999875 30.4986072,29.6783592 30.5178387,29.6571456 C30.5298141,29.6439318 30.5421786,29.6306541 30.5547196,29.6175468 C30.5785047,29.5927032 30.6024624,29.5689078 30.6270068,29.5457269 C30.6356315,29.5375777 30.6446499,29.5292119 30.6537449,29.5209287 L30.7259616,29.4582336 L30.7259616,29.4582336 C30.7414047,29.4454509 30.7574565,29.4325743 30.7737083,29.419943 C30.7956033,29.4029314 30.8175873,29.3865602 30.8399125,29.3706364 C30.8551845,29.3597386 30.8709552,29.3488226 30.8868882,29.3381297 C30.9096364,29.3228726 30.9322012,29.3083857 30.95507,29.2943457 C30.9737727,29.2828595 30.9929407,29.2715233 31.0123108,29.2605012 C31.0421918,29.2434915 31.0728577,29.2270768 31.1039879,29.2114509 C31.1149061,29.2059748 31.1253132,29.2008681 31.1357707,29.1958496 L31.2439957,29.1478212 L31.2439957,29.1478212 C31.2519792,29.1445622 31.2593654,29.1415987 31.2667733,29.1386782 C31.2924167,29.1285577 31.3189916,29.1187188 31.3458257,29.1094352 C31.3698532,29.101129 31.3936238,29.0934091 31.4175849,29.0861268 L31.4699819,29.0709858 L31.4699819,29.0709858 C31.4989195,29.063055 31.5279908,29.055787 31.5573063,29.0491628 C31.5801944,29.0439931 31.6030565,29.0392489 31.626058,29.0348985 C31.6507952,29.030217 31.675917,29.0259575 31.7011935,29.0221709 C31.7988274,29.0075563 31.8985313,29 32,29 C35.3137085,29 38,26.3137085 38,23 C38,19.6862915 35.3137085,17 32,17 C28.6862915,17 26,19.6862915 26,23 C26,24.1045695 25.1045695,25 24,25 C22.8954305,25 22,24.1045695 22,23 C22,17.4771525 26.4771525,13 32,13 Z"></path>
        </g>
    </g>
</svg>