<?xml version="1.0" encoding="UTF-8" standalone="no"?>
<svg width="64px" height="64px" viewBox="0 0 32 32" version="1.1" xmlns="http://www.w3.org/2000/svg" xmlns:xlink="http://www.w3.org/1999/xlink">
    <!-- Generator: Sketch 50.2 (55047) - http://www.bohemiancoding.com/sketch -->
    <title>path-1</title>
    <desc>Created with Sketch.</desc>
    <defs></defs>
    <g id="Page-1" stroke="none" stroke-width="1" fill="none" fill-rule="evenodd">
        <path d="M17.1789474,16.076555 L31.3875598,1.62296651 C31.7550239,1.25550239 31.7550239,0.643062201 31.3875598,0.275598086 C31.0200957,-0.0918660287 30.4076555,-0.0918660287 30.0401914,0.275598086 L15.8315789,14.7291866 L1.50047847,0.398086124 C1.13301435,0.0306220096 0.643062201,0.0306220096 0.275598086,0.398086124 C-0.0918660287,0.765550239 -0.0918660287,1.25550239 0.275598086,1.62296651 L14.4842105,16.076555 L0.275598086,30.4076555 C-0.0918660287,30.7751196 -0.0918660287,31.2650718 0.275598086,31.6325359 C0.398086124,31.877512 0.643062201,32 0.888038278,32 C1.13301435,32 1.37799043,31.877512 1.50047847,31.7550239 L15.8315789,17.4239234 L30.1626794,31.877512 C30.2851675,32 30.5301435,32 30.7751196,32 C31.0200957,32 31.2650718,31.877512 31.3875598,31.7550239 C31.7550239,31.3875598 31.7550239,30.7751196 31.3875598,30.4076555 L17.1789474,16.076555 Z" id="path-1" fill="#E20613" fill-rule="nonzero"></path>
    </g>
</svg>