<?xml version="1.0" encoding="UTF-8"?>
<svg width="56px" height="56px" viewBox="0 0 56 56" version="1.1" xmlns="http://www.w3.org/2000/svg" xmlns:xlink="http://www.w3.org/1999/xlink">
    <title>operation-search</title>
    <g id="Icons" stroke="none" stroke-width="1" fill="none" fill-rule="evenodd">
        <g id="operation-search" transform="translate(-4.000000, -4.000000)" fill="#000000" fill-rule="nonzero">
            <path d="M28.5,4 C42.0309764,4 53,14.9690236 53,28.5 C53,34.8078512 50.6161848,40.5589326 46.7002838,44.9015147 C46.7182815,44.9134965 46.7363037,44.9275335 46.7541395,44.9419234 L46.8838107,45.0560236 L58.8838107,56.5560236 C59.6812969,57.3202812 59.708234,58.5863246 58.9439764,59.3838107 C58.2199429,60.1393239 57.0455532,60.203264 56.2458605,59.5580766 L56.1161893,59.4439764 L44.1161893,47.9439764 C44.0080863,47.8403777 43.9141422,47.7275586 43.8344084,47.6079362 C39.637652,50.9814094 34.3045595,53 28.5,53 C14.9690236,53 4,42.0309764 4,28.5 C4,14.9690236 14.9690236,4 28.5,4 Z M28.5,8 C17.1781626,8 8,17.1781626 8,28.5 C8,39.8218374 17.1781626,49 28.5,49 C39.8218374,49 49,39.8218374 49,28.5 C49,17.1781626 39.8218374,8 28.5,8 Z"></path>
        </g>
    </g>
</svg>