<?xml version="1.0" encoding="UTF-8"?>
<svg width="44px" height="56px" viewBox="0 0 44 56" version="1.1" xmlns="http://www.w3.org/2000/svg" xmlns:xlink="http://www.w3.org/1999/xlink">
    <title>navigation-user account</title>
    <g id="Icons" stroke="none" stroke-width="1" fill="none" fill-rule="evenodd">
        <g id="navigation-user-account" transform="translate(-10.000000, -4.000000)" fill="#000000" fill-rule="nonzero">
            <path d="M41,32 C48.0771346,32 53.8334283,37.6551918 53.9964496,44.6931438 L54,45 L54,58 C54,59.1045695 53.1045695,60 52,60 C50.9456382,60 50.0818349,59.1841222 50.0054857,58.1492623 L50,58 L50,45 C50,40.1181973 46.1131863,36.1442086 41.2653623,36.0038371 L41,36 L23,36 C18.1181973,36 14.1442086,39.8868137 14.0038371,44.7346377 L14,45 L14,58 C14,59.1045695 13.1045695,60 12,60 C10.9456382,60 10.0818349,59.1841222 10.0054857,58.1492623 L10,58 L10,45 C10,37.9228654 15.6551918,32.1665717 22.6931438,32.0035504 L23,32 L41,32 Z M32,4 C38.9035594,4 44.5,9.59644063 44.5,16.5 C44.5,23.4035594 38.9035594,29 32,29 C25.0964406,29 19.5,23.4035594 19.5,16.5 C19.5,9.59644063 25.0964406,4 32,4 Z M32,8 C27.3055796,8 23.5,11.8055796 23.5,16.5 C23.5,21.1944204 27.3055796,25 32,25 C36.6944204,25 40.5,21.1944204 40.5,16.5 C40.5,11.8055796 36.6944204,8 32,8 Z"></path>
        </g>
    </g>
</svg>