<?xml version="1.0" encoding="UTF-8"?>
<svg width="56px" height="57px" viewBox="0 0 56 57" version="1.1" xmlns="http://www.w3.org/2000/svg" xmlns:xlink="http://www.w3.org/1999/xlink">
    <title>navigation-cart</title>
    <g id="Icons" stroke="none" stroke-width="1" fill="none" fill-rule="evenodd">
        <g id="navigation-cart" transform="translate(-4.000000, -4.000000)" fill="#000000" fill-rule="nonzero">
            <path d="M32,4 C39.6275002,4 45.8303269,10.0997524 45.996578,17.687355 L46,18 L45.9997005,22.5 L55.3341391,22.5 L55.4871009,22.5057847 C56.4469535,22.5786327 57.2286946,23.3314245 57.3245032,24.3039108 L57.3245032,24.3039108 L59.9358195,50.8095567 L59.9678194,51.0995732 C60.1709654,53.3251019 59.4062885,55.5896368 57.8446466,57.3017422 C56.2287617,59.0733171 53.9153072,60.0833333 51.4897707,60.0833333 L51.4897707,60.0833333 L12.5059298,60.0833333 C10.0803933,60.0833333 7.76693886,59.0733171 6.15105392,57.3017422 C4.58941205,55.5896368 3.8247351,53.3251019 4.0278811,51.0995732 L4.05988105,50.8095567 L6.67119736,24.3039108 C6.76700598,23.3314245 7.54874706,22.5786327 8.50859962,22.5057847 L8.66156141,22.5 L17.9997005,22.5 L18,18 C18,10.2680135 24.2680135,4 32,4 Z M53.5227005,26.5 L10.473,26.5 L8.03378228,51.2617322 C7.88835807,52.3881269 8.21660179,53.522621 8.94432872,54.4180326 L9.10635771,54.606157 C9.90698187,55.483921 11.0459206,56.014177 12.2618046,56.0770302 L12.5059298,56.0833333 L51.4897707,56.0833333 L51.733896,56.0770302 C52.94978,56.014177 54.0887187,55.483921 54.8893428,54.606157 L54.8893428,54.606157 L55.0513718,54.4180326 C55.7790988,53.522621 56.1073425,52.3881269 55.9619183,51.2617322 L55.9619183,51.2617322 L53.5227005,26.5 Z M32,8 C26.5707601,8 22.1520683,12.3266708 22.0038418,17.7200952 L22,18 L21.9997005,22.5 L41.9997005,22.5 L42,18 C42,12.4771525 37.5228475,8 32,8 Z"></path>
        </g>
    </g>
</svg>