<?xml version="1.0" encoding="UTF-8"?>
<svg width="59px" height="34px" viewBox="0 0 59 34" version="1.1" xmlns="http://www.w3.org/2000/svg" xmlns:xlink="http://www.w3.org/1999/xlink">
    <title>navigation-arrow-right</title>
    <g id="Icons" stroke="none" stroke-width="1" fill="none" fill-rule="evenodd">
        <g id="navigation-arrow-right" transform="translate(-3.000000, -15.000000)" fill="#e20613" fill-rule="nonzero">
            <path d="M46.3047901,16.3419854 L46.4142136,16.4436508 L60.5563492,30.5857864 C61.3018956,31.3313328 61.335784,32.5190467 60.6580146,33.3047901 L60.5563492,33.4142136 L46.4142136,47.5563492 C45.633165,48.3373978 44.366835,48.3373978 43.5857864,47.5563492 C42.8402401,46.8108028 42.8063516,45.6230889 43.484121,44.8373455 L43.5857864,44.7279221 L54.313,33.9998644 L5.5,34 C4.3954305,34 3.5,33.1045695 3.5,32 C3.5,30.9456382 4.31587779,30.0818349 5.35073766,30.0054857 L5.5,30 L54.313,29.9998644 L43.5857864,19.2720779 C42.8402401,18.5265316 42.8063516,17.3388177 43.484121,16.5530742 L43.5857864,16.4436508 C44.3313328,15.6981044 45.5190467,15.664216 46.3047901,16.3419854 Z"></path>
        </g>
    </g>
</svg>