<?xml version="1.0" encoding="UTF-8"?>
<svg width="21px" height="38px" viewBox="0 0 21 38" version="1.1" xmlns="http://www.w3.org/2000/svg" xmlns:xlink="http://www.w3.org/1999/xlink">
    <title>navigation-chevron-bottom</title>
    <g id="Icons" stroke="none" stroke-width="1" fill="none" fill-rule="evenodd">
        <g id="navigation-chevron-bottom" transform="rotate(-270, 0, 0) translate(-13.000000, -43.000000)" fill="#ffffff" fill-rule="nonzero">
            <path d="M44.0208153,9.97918472 C45.0751771,9.97918472 45.9389804,10.7950625 46.0153295,11.8299224 L46.0208153,11.9791847 L46.0208153,36.0208153 C46.0208153,37.0751771 45.2049375,37.9389804 44.1700776,38.0153295 L44.0208153,38.0208153 L19.9791847,38.0208153 C18.8746152,38.0208153 17.9791847,37.1253848 17.9791847,36.0208153 C17.9791847,34.9664535 18.7950625,34.1026502 19.8299224,34.026301 L19.9791847,34.0208153 L42.02,34.02 L42.0208153,11.9791847 C42.0208153,10.9248229 42.8366931,10.0610196 43.8715529,9.98467046 L44.0208153,9.97918472 Z" transform="translate(32.000000, 24.000000) scale(1, -1) rotate(-135.000000) translate(-32.000000, -24.000000) "></path>
        </g>
    </g>
</svg>