<?xml version="1.0" encoding="UTF-8"?>
<svg width="34px" height="58px" viewBox="0 0 34 58" version="1.1" xmlns="http://www.w3.org/2000/svg" xmlns:xlink="http://www.w3.org/1999/xlink">
    <title>navigation-arrow-top</title>
    <g id="Icons" stroke="none" stroke-width="1" fill="none" fill-rule="evenodd">
        <g id="navigation-arrow-top" transform="translate(-15.000000, -3.000000)" fill="#000000" fill-rule="nonzero">
            <path d="M45.9837223,16.5209176 L46.0931458,16.622583 L60.2352814,30.7647186 C60.9808277,31.510265 61.0147162,32.6979789 60.3369468,33.4837223 L60.2352814,33.5931458 L46.0931458,47.7352814 C45.3120972,48.51633 44.0457672,48.51633 43.2647186,47.7352814 C42.5191723,46.989735 42.4852838,45.8020211 43.1630532,45.0162777 L43.2647186,44.9068542 L53.9919322,34.1787966 L5.17893219,34.1789322 C4.07436269,34.1789322 3.17893219,33.2835017 3.17893219,32.1789322 C3.17893219,31.1245704 3.99480998,30.2607671 5.02966984,30.1844179 L5.17893219,30.1789322 L53.9919322,30.1787966 L43.2647186,19.4510101 C42.5191723,18.7054638 42.4852838,17.5177498 43.1630532,16.7320064 L43.2647186,16.622583 C44.010265,15.8770366 45.1979789,15.8431482 45.9837223,16.5209176 Z" transform="translate(32.000000, 32.178932) rotate(-90.000000) translate(-32.000000, -32.178932) "></path>
        </g>
    </g>
</svg>