<?xml version="1.0" encoding="UTF-8"?>
<svg width="52px" height="52px" viewBox="0 0 52 52" version="1.1" xmlns="http://www.w3.org/2000/svg" xmlns:xlink="http://www.w3.org/1999/xlink">
    <title>operation-search</title>
    <g id="Icons" stroke="none" stroke-width="1" fill="none" fill-rule="evenodd">
        <g id="operation-search" transform="translate(-6.000000, -6.000000)" fill="#000000" fill-rule="nonzero">
            <path d="M6.58578644,6.58578644 C7.36683502,5.80473785 8.63316498,5.80473785 9.41421356,6.58578644 L9.41421356,6.58578644 L32,29.171 L54.5857864,6.58578644 C55.366835,5.80473785 56.633165,5.80473785 57.4142136,6.58578644 C58.1541543,7.3257272 58.1930986,8.50121136 57.5310463,9.28699879 L57.4142136,9.41421356 L34.829,32 L57.4142136,54.5857864 L57.5310463,54.7130012 C58.1930986,55.4987886 58.1541543,56.6742728 57.4142136,57.4142136 C56.633165,58.1952621 55.366835,58.1952621 54.5857864,57.4142136 L54.5857864,57.4142136 L32,34.829 L9.41421356,57.4142136 C8.63316498,58.1952621 7.36683502,58.1952621 6.58578644,57.4142136 C5.84584567,56.6742728 5.80690142,55.4987886 6.46895369,54.7130012 L6.58578644,54.5857864 L29.171,32 L6.58578644,9.41421356 L6.46895369,9.28699879 C5.80690142,8.50121136 5.84584567,7.3257272 6.58578644,6.58578644 Z"></path>
        </g>
    </g>
</svg>