<?xml version="1.0" encoding="UTF-8"?>
<svg width="44px" height="60px" viewBox="0 0 44 60" version="1.1" xmlns="http://www.w3.org/2000/svg" xmlns:xlink="http://www.w3.org/1999/xlink">
    <title>operation-download</title>
    <g id="Icons" stroke="none" stroke-width="1" fill="none" fill-rule="evenodd">
        <g id="operation-download" transform="translate(-10.000000, -2.000000)" fill="#000000" fill-rule="nonzero">
            <path d="M60,10 C61.1045695,10 62,10.8954305 62,12 L62,12 L62,52 L61.9945143,52.1492623 C61.9181651,53.1841222 61.0543618,54 60,54 C58.8954305,54 58,53.1045695 58,52 L58,52 L58,12 L58.0054857,11.8507377 C58.0818349,10.8158778 58.9456382,10 60,10 Z M38.8047901,16.3419854 L38.9142136,16.4436508 L53.0563492,30.5857864 C53.8018956,31.3313328 53.835784,32.5190467 53.1580146,33.3047901 L53.0563492,33.4142136 L38.9142136,47.5563492 C38.133165,48.3373978 36.866835,48.3373978 36.0857864,47.5563492 C35.3402401,46.8108028 35.3063516,45.6230889 35.984121,44.8373455 L36.0857864,44.7279221 L46.813,34 L4,34 C2.8954305,34 2,33.1045695 2,32 C2,30.9456382 2.81587779,30.0818349 3.85073766,30.0054857 L4,30 L46.813,30 L36.0857864,19.2720779 C35.3402401,18.5265316 35.3063516,17.3388177 35.984121,16.5530742 L36.0857864,16.4436508 C36.8313328,15.6981044 38.0190467,15.664216 38.8047901,16.3419854 Z" transform="translate(32.000000, 32.000000) scale(1, -1) rotate(-90.000000) translate(-32.000000, -32.000000) "></path>
        </g>
    </g>
</svg>