<?xml version="1.0" encoding="UTF-8"?>
<svg width="46px" height="56px" viewBox="0 0 46 56" version="1.1" xmlns="http://www.w3.org/2000/svg" xmlns:xlink="http://www.w3.org/1999/xlink">
    <title>pdf</title>
    <g id="Icons" stroke="none" stroke-width="1" fill="none" fill-rule="evenodd">
        <g id="pdf" transform="translate(-9.000000, -4.000000)" fill="#e20613" fill-rule="nonzero">
            <path d="M42.4545455,4 L55,16 L55,56 C55,58.209139 53.209139,60 51,60 L13,60 C10.790861,60 9,58.209139 9,56 L9,8 C9,5.790861 10.790861,4 13,4 L42.4545455,4 Z M39,8 L13,8 L13,56 L51,56 L51,19.5 L41,19.5 C39.9456382,19.5 39.0818349,18.6841222 39.0054857,17.6492623 L39,17.5 L39,8 Z M32.5244598,23.9223518 L32.4849242,24.212132 L32.4494827,24.3860052 L31.442,28.168 L37.221227,33.9773357 C40.5628506,33.4674379 43.0236105,33.423309 44.6849683,33.8874597 C46.9957142,34.5330367 47.9999196,36.3086799 47.2574916,38.5488138 C46.497495,40.8419572 44.7235719,41.8852356 42.4511993,41.2975401 C40.7366082,40.8541017 38.698478,39.4822892 36.227975,37.1832736 C35.3614225,37.3379829 34.4356996,37.5223461 33.4509375,37.7360138 L32.8529965,37.8677282 L32.7277862,37.8901862 C31.3759158,38.0738871 30.1256723,38.2918586 28.9812738,38.5427465 L28.8711424,38.5687552 C27.9985891,41.4194331 26.7316905,43.6973058 25.0541463,45.3845281 C22.3933712,48.0606538 19.9574196,48.9219243 18.0796321,47.1955221 L18.027,47.145 L17.9643931,47.0994617 C15.752847,45.3977992 16.1730101,42.9201169 18.567083,40.3274306 L18.7503293,40.1327738 L18.9362934,39.942395 C20.5922076,38.2769275 23.0969478,37.0040536 26.4296375,36.0830579 C26.562761,35.514535 26.6807683,34.9206844 26.7844151,34.301739 L26.8833032,33.6744374 L26.9174936,33.5087387 L28.1,29.061 L27.9962256,28.9560807 L27.8986013,28.7863561 C27.7118407,28.4616634 27.5327879,28.1425062 27.3615841,27.8289806 L27.0296835,27.2094665 L26.7189642,26.605141 L26.4296767,26.016175 C23.9232848,20.7851116 24.0513261,17.4410039 27.6361966,16.5447862 C31.6374749,15.5444667 33.2217292,18.55503 32.5244598,23.9223518 Z M25.314,39.585 L25.2660244,39.6028125 C23.3983235,40.2929597 21.9984116,41.1175074 21.0637066,42.057605 L20.8976726,42.2264028 L20.5975649,42.5426891 L20.3387351,42.8319051 C19.4236221,43.8907401 19.3830113,44.3884064 19.8105859,44.7332077 L19.8689783,44.7773485 L19.9733897,44.8515571 L20.0637066,44.942395 C20.2012175,45.0806993 20.2942733,45.0994178 20.6025475,44.9960669 C21.1729976,44.8048199 21.9676435,44.233941 22.9267332,43.2693181 C23.7808635,42.4102601 24.5168059,41.3215091 25.1288115,40.0027514 L25.314,39.585 Z M40.6628712,36.6052607 L40.3293742,36.6286687 L40.152,36.643 L40.3089565,36.7696793 L40.7334,37.1000168 C41.0758491,37.3589548 41.3904163,37.5773415 41.6789962,37.7574777 L42.0129394,37.9554283 C43.2997867,38.6749678 44.0053471,38.5344237 44.3391511,37.7882613 L44.3789555,37.6918551 L44.4098124,37.6050323 C44.5660474,37.1336232 44.575101,37.0094447 44.2009174,36.8754971 L44.0001456,36.8116816 C43.9618618,36.8004967 43.9210954,36.7889291 43.877739,36.7768162 C43.1592616,36.5760877 42.081794,36.5154238 40.6628712,36.6052607 Z M30.549,31.524 L29.836,34.205 L29.7393434,34.8204174 L29.666,35.231 L29.771504,35.2031833 L29.738,35.33 L30.2522388,35.2374904 C30.5480601,35.1858829 30.8488032,35.136147 31.154473,35.0882775 L31.6166735,35.0178725 L32.253,34.927 L33.1150398,34.7395808 L33.569,34.643 L33.491546,34.5694206 L33.566,34.557 L30.549,31.524 Z M28.3638034,19.4552138 C27.8132492,19.5928523 27.5892972,20.1943024 27.8348741,21.3570507 L27.9179387,21.7046221 C28.0940997,22.3701464 28.4028232,23.192225 28.8646507,24.1848689 L29.1318639,24.7433108 L29.208,24.898 L29.527,23.7 L29.6219505,22.9715784 C29.6320385,22.885646 29.6414938,22.8015497 29.6503188,22.7192602 L29.6957232,22.2469676 L29.7261146,21.8166215 L29.7416087,21.4268077 C29.7806822,19.638382 29.3017921,19.2207166 28.3638034,19.4552138 Z M43,10.057 L43,15.5 L48.691,15.5 L43,10.057 Z"></path>
        </g>
    </g>
</svg>