<?xml version="1.0" encoding="UTF-8"?>
<svg width="60px" height="39px" viewBox="0 0 60 39" version="1.1" xmlns="http://www.w3.org/2000/svg" xmlns:xlink="http://www.w3.org/1999/xlink">
    <title>quotation mark</title>
    <g id="Icons" stroke="none" stroke-width="1" fill="none" fill-rule="evenodd">
        <g id="quotation-mark" transform="translate(-2.000000, -13.000000)" fill="#000000">
            <path d="M28.8965517,13 L28.8965517,48.4078947 C28.8965517,50.3917632 27.2755172,52 25.2758621,52 L22.1724138,52 L22.1724138,42.7631579 C22.1724138,42.5871447 22.19,42.41575 22.2241379,42.25 L2,42.25 L2,18.6447368 C2,15.5273026 4.54741379,13 7.68965517,13 L28.8965517,13 Z M62,13 L62,48.4078947 C62,50.3917632 60.3789655,52 58.3793103,52 L55.2758621,52 L55.2758621,42.7631579 C55.2758621,42.5871447 55.2934483,42.41575 55.3275862,42.25 L35.1034483,42.25 L35.1034483,18.6447368 C35.1034483,15.5273026 37.6508621,13 40.7931034,13 L62,13 Z"></path>
        </g>
    </g>
</svg>