<?xml version="1.0" encoding="UTF-8"?>
<svg width="58px" height="58px" viewBox="0 0 58 58" version="1.1" xmlns="http://www.w3.org/2000/svg" xmlns:xlink="http://www.w3.org/1999/xlink">
    <title>world</title>
    <g id="Icons" stroke="none" stroke-width="1" fill="none" fill-rule="evenodd">
        <g id="world" transform="translate(-3.000000, -3.000000)" fill="#000000" fill-rule="nonzero">
            <path d="M32,3 C48.0162577,3 61,15.9837423 61,32 C61,48.0162577 48.0162577,61 32,61 C15.9837423,61 3,48.0162577 3,32 C3,15.9837423 15.9837423,3 32,3 Z M41.4587536,47.0020554 L33.75,47 L33.7508745,56.6947136 C36.4189465,55.7696899 38.97303,52.7935381 40.8641739,48.4658454 L41.1254109,47.8491051 C41.23924,47.5718133 41.3503984,47.2894071 41.4587536,47.0020554 Z M29.75,47 L22.5412464,47.0020554 C22.6496016,47.2894071 22.76076,47.5718133 22.8745891,47.8491051 L23.1358261,48.4658454 C24.9087653,52.5230386 27.2643609,55.3923649 29.7502974,56.4973905 L29.75,47 Z M18.3039644,47.0004757 L11.9986213,47.0006021 C14.6381489,50.514462 18.1820662,53.3101581 22.2847822,55.0420991 C20.6967466,52.840775 19.3435319,50.111957 18.3039644,47.0004757 Z M52.0013787,47.0006021 L45.6960356,47.0004757 C44.6564681,50.111957 43.3032534,52.840775 41.715848,55.0429145 C45.8179338,53.3101581 49.3618511,50.514462 52.0013787,47.0006021 Z M16.0375032,34.0012904 L7.07887693,34.0005313 C7.33293479,37.2093209 8.19285448,40.2475822 9.54424707,43.0009262 L17.1912653,43.0005588 C17.1814353,42.9571323 17.1716617,42.913653 17.1619448,42.8701211 L16.981671,42.0244482 C16.4679321,39.4968009 16.1428882,36.8037077 16.0375032,34.0012904 Z M29.75,34 L20.0406384,34.0012459 C20.1083541,35.6623771 20.2592895,37.2716055 20.4828573,38.8154386 L20.6065514,39.618064 C20.7367757,40.4145647 20.8864217,41.1924759 21.0539676,41.9498584 L21.2274238,42.7003263 L21.301,43 L29.75,43 L29.75,34 Z M43.9593616,34.0012459 L33.75,34 L33.75,43 L42.6987317,43.0013833 C42.7236633,42.901423 42.7482794,42.8010691 42.7725762,42.7003263 L42.9460324,41.9498584 C43.1135783,41.1924759 43.2632243,40.4145647 43.3934486,39.618064 L43.5171427,38.8154386 C43.7407105,37.2716055 43.8916459,35.6623771 43.9593616,34.0012459 Z M56.9211231,34.0005313 L47.9624968,34.0012904 C47.8571118,36.8037077 47.5320679,39.4968009 47.018329,42.0244482 L46.8380552,42.8701211 L46.808,43 L54.4557529,43.0009262 C55.8071455,40.2475822 56.6670652,37.2093209 56.9211231,34.0005313 Z M17.19,21 L9.54375721,21.0000719 C8.19250667,23.7534374 7.33272591,26.7916965 7.07879798,30.0004662 L16.0374656,29.99971 C16.1428108,27.1969332 16.4678709,24.5034998 16.981671,21.9755518 L17.1619448,21.1298789 L17.19,21 Z M29.75,21 L21.301019,20.9996163 C21.2761726,21.099246 21.2516396,21.1992668 21.2274238,21.2996737 L21.0539676,22.0501416 C20.8864217,22.8075241 20.7367757,23.5854353 20.6065514,24.381936 L20.4828573,25.1845614 C20.2592145,26.7289121 20.1082529,28.3387019 20.0405703,30.0004248 L29.75,30 L29.75,21 Z M42.698,21 L33.75,21 L33.75,30 L43.9594023,29.9997534 C43.8917064,28.3382683 43.7407554,26.7287041 43.5171427,25.1845614 L43.3934486,24.381936 C43.2632243,23.5854353 43.1135783,22.8075241 42.9460324,22.0501416 L42.7725762,21.2996737 L42.698,21 Z M54.4562428,21.0000719 L46.8089615,21.0004434 C46.8187151,21.0435366 46.828413,21.0866819 46.8380552,21.1298789 L47.018329,21.9755518 C47.5321291,24.5034998 47.8571892,27.1969332 47.9625344,29.99971 L56.921202,30.0004662 C56.6672741,26.7916965 55.8074933,23.7534374 54.4562428,21.0000719 Z M22.284152,8.95708545 L22.2688718,8.96462393 C18.1725167,10.697236 14.6340673,13.4906091 11.9978738,17.0003931 L18.3036282,17.0005305 C19.3432401,13.8886312 20.6965755,11.1594623 22.284152,8.95708545 Z M23.1358261,15.5341546 L22.8745891,16.1508949 C22.7606281,16.428508 22.649344,16.7112474 22.5408698,16.9989435 L29.75,17 L29.7502974,7.5026095 C27.2643609,8.60763506 24.9087653,11.4769614 23.1358261,15.5341546 Z M33.7508745,7.30528638 L33.75,17 L41.4591302,16.9989435 C41.350656,16.7112474 41.2393719,16.428508 41.1254109,16.1508949 L40.8641739,15.5341546 C38.97303,11.2064619 36.4189465,8.23031014 33.7508745,7.30528638 Z M41.7152178,8.95790092 L41.862828,9.16343952 C43.3870372,11.3290538 44.6889907,13.9851087 45.6963718,17.0005305 L52.0021262,17.0003931 C49.3625202,13.4860659 45.8183211,10.6900055 41.7152178,8.95790092 Z"></path>
        </g>
    </g>
</svg>